<svg xmlns="http://www.w3.org/2000/svg" xmlns:xlink="http://www.w3.org/1999/xlink" version="1.1" x="0px" y="0px" viewBox="0 0 100 125" enable-background="new 0 0 100 100" xml:space="preserve"><g display="none"><path fill="white" display="inline" d="M94.936,32.25l-22.879,8.623v-7.869c0-4.341-3.532-7.873-7.871-7.873H12.937   c-4.339,0-7.872,3.532-7.872,7.873v33.992c0,4.342,3.533,7.873,7.872,7.873h51.249c4.339,0,7.871-3.531,7.871-7.873v-7.629   l22.879,8.357V32.25z M68.908,66.996c0,2.605-2.121,4.723-4.723,4.723H12.937c-2.604,0-4.723-2.117-4.723-4.723V33.004   c0-2.605,2.118-4.724,4.723-4.724h51.249c2.602,0,4.723,2.118,4.723,4.724V66.996z M91.787,63.223L72.22,56.076V44.174   l19.567-7.372V63.223z"/></g><g><path fill="#6e6779" d="M71.34,39.832v6.636h-3.17V25.269C68.17,15.235,60.033,7.1,49.999,7.1s-18.17,8.135-18.17,18.169v21.199H28.66v-6.636   h-2.436v18.917c0,12.285,9.319,22.388,21.27,23.641v6.453h-5.608c-1.121,0-2.029,0.908-2.029,2.028   c0,1.121,0.908,2.029,2.029,2.029h16.23c1.12,0,2.027-0.908,2.027-2.029c0-1.12-0.907-2.028-2.027-2.028h-5.61V82.39   c11.951-1.253,21.27-11.355,21.27-23.641V39.832H71.34z M34.265,26.03c0-8.689,6.98-16.713,15.669-16.713   c8.69,0,15.802,8.024,15.802,16.713v13.757H34.265V26.03z M71.34,57.987c0,11.787-9.556,21.34-21.34,21.34   s-21.34-9.553-21.34-21.34v-9.133h3.169v7.74c0,10.035,8.388,19.9,18.422,19.9c10.035,0,17.919-9.865,17.919-19.9v-7.74h3.17   V57.987z"/></g></svg>