<svg xmlns:x="http://ns.adobe.com/Extensibility/1.0/" xmlns:i="http://ns.adobe.com/AdobeIllustrator/10.0/" xmlns:graph="http://ns.adobe.com/Graphs/1.0/" xmlns="http://www.w3.org/2000/svg" xmlns:xlink="http://www.w3.org/1999/xlink" version="1.1" x="0px" y="0px" viewBox="0 0 64 80" enable-background="new 0 0 64 64" xml:space="preserve"><metadata><sfw xmlns="http://ns.adobe.com/SaveForWeb/1.0/"><slices/><sliceSourceBounds height="16384" width="16389" x="-8165" y="-8160" bottomLeftOrigin="true"/></sfw></metadata><g><path d="M58.483,20.777L40.476,12.17c-0.501-0.238-1.096-0.027-1.334,0.471l-5.144,10.76c-0.005,0.01-0.01,0.02-0.015,0.029   s-0.009,0.02-0.014,0.029L32,27.581l-1.97-4.121c-0.004-0.01-0.009-0.02-0.013-0.029c-0.005-0.01-0.01-0.02-0.015-0.029   l-5.144-10.76c-0.239-0.5-0.837-0.71-1.333-0.471L5.517,20.778c-0.389,0.186-0.615,0.6-0.561,1.028s0.376,0.772,0.799,0.855   l8.476,1.667l-4.011,7.677c-0.199,0.381-0.132,0.848,0.167,1.157c0.299,0.311,0.764,0.394,1.151,0.208l17.105-8.176l2.249,4.704   l-9.846,20.597c-0.238,0.499-0.027,1.096,0.471,1.334c0.139,0.066,0.286,0.098,0.431,0.098c0.373,0,0.731-0.21,0.903-0.568   L32,32.219l9.149,19.141c0.172,0.358,0.53,0.568,0.903,0.568c0.145,0,0.291-0.031,0.431-0.098c0.498-0.238,0.709-0.835,0.471-1.334   L33.108,29.9l2.249-4.705l17.104,8.177c0.388,0.184,0.852,0.103,1.151-0.208c0.299-0.31,0.366-0.776,0.167-1.157l-4.012-7.678   l8.477-1.668c0.423-0.083,0.745-0.428,0.799-0.855S58.872,20.963,58.483,20.777z"/></g></svg>