<svg xmlns="http://www.w3.org/2000/svg" data-name="Ebene 1" viewBox="0 0 48 60" x="0px" y="0px"><defs><style>.cls-1{fill:#fff;opacity:0;}</style></defs><title>Twin Bed</title><path fill="#0066cc" d="M39,23.18V16a3.00879,3.00879,0,0,0-3-3H12a3.00879,3.00879,0,0,0-3,3v7.18A3.00055,3.00055,0,0,0,7,26V38a1,1,0,0,0,2,0V35H39v3a1,1,0,0,0,2,0V26A3.00055,3.00055,0,0,0,39,23.18ZM11,16a1.003,1.003,0,0,1,1-1H36a1.003,1.003,0,0,1,1,1v7H35V18a1.003,1.003,0,0,0-1-1H26a1.003,1.003,0,0,0-1,1v5H23V18a1.003,1.003,0,0,0-1-1H14a1.003,1.003,0,0,0-1,1v5H11Zm22,7H27V19h6ZM21,23H15V19h6ZM9,33V26a1.003,1.003,0,0,1,1-1H38a1.003,1.003,0,0,1,1,1v7Z"/><rect class="cls-1" width="48" height="48"/></svg>