<svg xmlns:x="http://ns.adobe.com/Extensibility/1.0/" xmlns:i="http://ns.adobe.com/AdobeIllustrator/10.0/" xmlns:graph="http://ns.adobe.com/Graphs/1.0/" xmlns="http://www.w3.org/2000/svg" xmlns:xlink="http://www.w3.org/1999/xlink" xmlns:a="http://ns.adobe.com/AdobeSVGViewerExtensions/3.0/" version="1.1" x="0px" y="0px" viewBox="0 0 100 125" enable-background="new 0 0 100 100" xml:space="preserve"><g><path d="M7.1,30.4c1,0.9,2.2,1.5,3.5,1.8v53.5c0,1.1,0.9,2,2,2h43.3c1.1,0,2-0.9,2-2v-3.1c3.8,2.4,8.2,3.8,13,3.8   c13.4,0,24.3-10.9,24.3-24.3c0-13.4-10.9-24.3-24.3-24.3c-4.8,0-9.2,1.4-13,3.8v-9.3c3.3-0.8,5.8-3.5,5.8-6.8c0-3.7-3.1-6.7-7-7   v-4.2c0-1.1-0.9-2-2-2h-10c-1.1,0-2,0.9-2,2v4.1h-17v-4.1c0-1.1-0.9-2-2-2h-10c-1.1,0-2,0.9-2,2v4.2c-3.9,0.3-7,3.3-7,7   C4.8,27.3,5.6,29.1,7.1,30.4z M91.2,60.4h-3c-1.1,0-2,0.9-2,2s0.9,2,2,2h2.9c-1.1,9.4-8.7,16.9-18.2,17.9v-2.6c0-1.1-0.9-2-2-2   s-2,0.9-2,2v2.6c-9.5-0.9-17.1-8.4-18.2-17.9h2.9c1.1,0,2-0.9,2-2s-0.9-2-2-2h-3c0.8-9.8,8.5-17.7,18.3-18.6v3.4c0,1.1,0.9,2,2,2   s2-0.9,2-2v-3.4C82.7,42.8,90.4,50.6,91.2,60.4z M46.6,62.1c0,6.8,2.8,13,7.3,17.4v4.3H14.6V32.4h39.3v12.3   C49.4,49.1,46.6,55.3,46.6,62.1z M46.8,16.3h6v2.1h-6V16.3z M21.8,16.3v2.1h-6v-2.1H21.8z M12.4,22.4h32.3h10h1.3   c2,0,3.7,1.3,3.7,3s-1.6,3-3.7,3h-0.2H12.6h-0.2c-1,0-2-0.3-2.7-1c-0.6-0.5-1-1.3-1-2C8.8,23.7,10.4,22.4,12.4,22.4z"/><path d="M47.7,40.6h-27c-1.1,0-2,0.9-2,2s0.9,2,2,2h27c1.1,0,2-0.9,2-2S48.9,40.6,47.7,40.6z"/><path d="M20.7,54.9h20.5c1.1,0,2-0.9,2-2s-0.9-2-2-2H20.7c-1.1,0-2,0.9-2,2S19.6,54.9,20.7,54.9z"/><path d="M20.7,65.2h22.6c1.1,0,2-0.9,2-2s-0.9-2-2-2H20.7c-1.1,0-2,0.9-2,2S19.6,65.2,20.7,65.2z"/><path d="M43.6,71.6H20.7c-1.1,0-2,0.9-2,2s0.9,2,2,2h22.8c1.1,0,2-0.9,2-2S44.7,71.6,43.6,71.6z"/><path d="M70.9,56.4c-0.6,0-1.2,0.1-1.8,0.3l-5.4-7.8c-0.6-0.9-1.9-1.1-2.8-0.5c-0.9,0.6-1.1,1.9-0.5,2.8l5.6,8.1   c-0.5,0.8-0.7,1.8-0.7,2.8c0,0,0,0.1,0,0.1c0,0,0,0,0,0L59,68.4c-0.8,0.8-0.8,2,0,2.8c0.4,0.4,0.9,0.6,1.4,0.6s1-0.2,1.4-0.6   l5.1-5.1c1,1,2.4,1.6,3.9,1.6c2.6,0,4.8-1.8,5.4-4.1h6c1.1,0,2-0.9,2-2s-0.9-2-2-2h-6.4C75,57.7,73.1,56.4,70.9,56.4z M70.9,63.7   c-0.9,0-1.6-0.7-1.6-1.6c0-0.3,0.1-0.6,0.3-0.9c0,0,0.1,0,0.2-0.1c0.2-0.1,0.3-0.3,0.5-0.5c0.2-0.1,0.5-0.2,0.7-0.2   c0.9,0,1.6,0.7,1.6,1.6S71.8,63.7,70.9,63.7z"/></g></svg>