<svg xmlns="http://www.w3.org/2000/svg" xmlns:xlink="http://www.w3.org/1999/xlink" version="1.1" x="0px" y="0px" viewBox="0 0 100 125" style="enable-background:new 0 0 100 100;" xml:space="preserve"><path fill="rgba(255, 255, 255, 0.8)" d="M50,4.8c-24.9,0-45,20.1-45,45c0,24.9,20.1,45,45,45c24.9,0,45-20.1,45-45C95,24.9,74.9,4.8,50,4.8z M54.3,67.9  c0,1.4-0.4,2.5-1.2,3.3c-0.8,0.8-1.9,1.3-3.2,1.3c-1.3,0-2.4-0.4-3.2-1.3c-0.8-0.8-1.2-2-1.2-3.3V45c0-1.4,0.4-2.5,1.2-3.4  c0.8-0.8,1.9-1.3,3.2-1.3c1.3,0,2.4,0.4,3.2,1.3c0.8,0.8,1.2,2,1.2,3.4V67.9z M53.4,34.2c-1,0.9-2.1,1.4-3.5,1.4  c-0.7,0-1.3-0.1-1.9-0.4c-0.6-0.3-1.1-0.6-1.6-1c-0.5-0.4-0.8-0.9-1.1-1.5c-0.3-0.6-0.4-1.2-0.4-1.8c0-0.6,0.1-1.1,0.4-1.7  c0.3-0.6,0.6-1,1.1-1.5c0.5-0.4,1-0.8,1.6-1c0.6-0.2,1.2-0.4,1.9-0.4c0.7,0,1.3,0.1,1.9,0.4c0.6,0.3,1.1,0.6,1.6,1  c0.5,0.4,0.8,0.9,1.1,1.4c0.3,0.5,0.4,1.1,0.4,1.7C54.8,32.1,54.4,33.3,53.4,34.2z"/></svg>