<svg xmlns="http://www.w3.org/2000/svg" xmlns:xlink="http://www.w3.org/1999/xlink" viewBox="0 0 100 125" version="1.1" x="0px" y="0px"><title>Gear 6.5</title><desc>Created with Sketch.</desc><g stroke="none" stroke-width="1" fill="none" fill-rule="evenodd"><g stroke="#000000" stroke-width="2"><path d="M32.8780939,67.0263024 C30.9367933,68.0804793 28.4669184,67.3806682 27.3660131,65.471104 L25.2867798,61.8645907 C24.1838423,59.9515014 24.8108435,57.4686133 26.7079984,56.3061771 L28.0184148,55.5032508 C28.8409769,54.9992456 29.5073727,53.8076141 29.5068514,52.84154 L29.5037832,47.1554234 C29.503262,46.1894063 28.83738,44.9985504 28.0134188,44.4936879 L26.7029669,43.69074 C24.8150611,42.5339709 24.1817081,40.0424066 25.2837894,38.1335457 L27.3652439,34.5283609 C28.4693596,32.6159763 30.9321745,31.9170126 32.887504,32.9788075 L34.2381033,33.7122181 C35.0858885,34.1725876 36.4515106,34.1546295 37.288416,33.6720439 L42.2142715,30.8316427 C43.0511275,30.3490856 43.74992,29.17774 43.7751624,28.2117634 L43.8153088,26.6754463 C43.8731457,24.4621472 45.7142431,22.6667984 47.9184269,22.6654282 L52.0813756,22.6628404 C54.2896283,22.6614677 56.1263904,24.4443939 56.1842574,26.6588431 L56.2246976,28.206408 C56.2499079,29.1711536 56.9486255,30.3448399 57.7854375,30.8279735 L62.7107432,33.6716001 C63.5475058,34.1547052 64.9119365,34.1737687 65.7614555,33.7124578 L67.1219061,32.9736976 C69.0632067,31.9195207 71.5330816,32.6193318 72.6339869,34.528896 L74.7132202,38.1354093 C75.8161577,40.0484986 75.1891565,42.5313867 73.2920016,43.6938229 L71.9815852,44.4967492 C71.1590231,45.0007544 70.4926273,46.1923859 70.4931486,47.15846 L70.4962168,52.8445766 C70.496738,53.8105937 71.16262,55.0014496 71.9865812,55.5063121 L73.2970331,56.30926 C75.1849389,57.4660291 75.8182919,59.9575934 74.7162106,61.8664543 L72.6347561,65.4716391 C71.5306404,67.3840237 69.0678255,68.0829874 67.112496,67.0211925 L65.7618967,66.2877819 C64.9141115,65.8274124 63.5484894,65.8453705 62.711584,66.3279561 L57.7857285,69.1683573 C56.9488725,69.6509144 56.25008,70.82226 56.2248376,71.7882366 L56.1846912,73.3245537 C56.1268543,75.5378528 54.2857569,77.3332016 52.0815731,77.3345718 L47.9186244,77.3371596 C45.7103717,77.3385323 43.8736096,75.5556061 43.8157426,73.3411569 L43.7753024,71.793592 C43.7500921,70.8288464 43.0513745,69.6551601 42.2145625,69.1720265 L37.2892568,66.3283999 C36.4524942,65.8452948 35.0880635,65.8262313 34.2385445,66.2875422 L32.8780939,67.0263024 Z M44,60.3923048 C49.7395115,63.7060133 57.0785963,61.7395115 60.3923048,56 C63.7060133,50.2604885 61.7395115,42.9214037 56,39.6076952 C50.2604885,36.2939867 42.9214037,38.2604885 39.6076952,44 C36.2939867,49.7395115 38.2604885,57.0785963 44,60.3923048 Z"/></g></g><text x="0" y="115" fill="#000000" font-size="5px" font-weight="bold" font-family="'Helvetica Neue', Helvetica, Arial-Unicode, Arial, Sans-serif">Created by Landan Lloyd</text><text x="0" y="120" fill="#000000" font-size="5px" font-weight="bold" font-family="'Helvetica Neue', Helvetica, Arial-Unicode, Arial, Sans-serif">from the Noun Project</text></svg>