<svg xmlns:dc="http://purl.org/dc/elements/1.1/" xmlns:cc="http://creativecommons.org/ns#" xmlns:rdf="http://www.w3.org/1999/02/22-rdf-syntax-ns#" xmlns:svg="http://www.w3.org/2000/svg" xmlns="http://www.w3.org/2000/svg" xmlns:sodipodi="http://sodipodi.sourceforge.net/DTD/sodipodi-0.dtd" xmlns:inkscape="http://www.inkscape.org/namespaces/inkscape" version="1.1" x="0px" y="0px" viewBox="0 0 100 125"><g transform="translate(0,-952.36218)"><path fill="#0066cc" style="text-indent:0;text-transform:none;direction:ltr;block-progression:tb;baseline-shift:baseline;color:#000000;enable-background:accumulate;" d="m 49.999986,968.36215 c -0.2704,0.01 -0.4881,0.0865 -0.625,0.1875 l -30.9995,24 c -0.2415,0.19315 -0.3847,0.50339 -0.375,0.8125 l 0,42.00005 c 10e-5,0.5236 0.4764,0.9999 1,1 l 20.9997,0 c 0.5236,-10e-5 0.9999,-0.4764 1,-1 l 0,-25 17.9997,0 0,25 c 1e-4,0.5236 0.4764,0.9999 1,1 l 20.9997,0 c 0.5236,-10e-5 0.9998,-0.4764 0.9999,-1 l 0,-42.00005 c 0.01,-0.30911 -0.1335,-0.61935 -0.3749,-0.8125 l -30.9996,-24 c -0.2196,-0.16653 -0.3538,-0.16201 -0.625,-0.1875 z m 0,2.25 29.9996,23.25 0,40.50005 -18.9997,0 0,-25 c -10e-5,-0.5236 -0.4764,-1 -1,-1 l -19.9997,0 c -0.5236,0 -0.9999,0.4764 -1,1 l 0,25 -18.9997,0 0,-40.50005 z" fill-opacity="1" stroke="none" marker="none" visibility="visible" display="inline" overflow="visible"/></g></svg>