<svg xmlns:dc="http://purl.org/dc/elements/1.1/" xmlns:cc="http://creativecommons.org/ns#" xmlns:rdf="http://www.w3.org/1999/02/22-rdf-syntax-ns#" xmlns:svg="http://www.w3.org/2000/svg" xmlns="http://www.w3.org/2000/svg" xmlns:sodipodi="http://sodipodi.sourceforge.net/DTD/sodipodi-0.dtd" xmlns:inkscape="http://www.inkscape.org/namespaces/inkscape" version="1.1" x="0px" y="0px" viewBox="0 0 100 125"><g transform="translate(0,-952.36218)"><path fill="#0066cc" style="text-indent:0;text-transform:none;direction:ltr;block-progression:tb;baseline-shift:baseline;color:#000000;enable-background:accumulate;" d="m 19.5937,977.36217 c -3.0668,0 -5.5937,2.55086 -5.5937,5.625 l 0,24.34373 -4.0000003,0 c -1.6473999,0 -3,1.3527 -3,3 l 0,16.0313 a 1.0001,1.0001 0 0 0 1,1 l 84.0000003,0 a 1.0001,1.0001 0 0 0 1,-1 l 0,-16.0313 c 0,-1.6473 -1.3527,-3 -3,-3 l -4,0 0,-24.34373 c 0,-3.0715 -2.4957,-5.625 -5.5626,-5.625 l -60.843701,0 z m 0,2 60.843701,0 c 1.9733,0 3.5626,1.63986 3.5626,3.625 l 0,24.34373 -6.75,0 0,-9.40623 c 0,-3.5625 -2.459,-6.65625 -5.6876,-6.65625 l -12.5,0 c -3.2284,0 -5.6874,3.09375 -5.6874,6.65625 l 0,9.40623 -6.3438,0 0,-9.40623 c 0,-3.56036 -2.4203,-6.65625 -5.656201,-6.65625 l -12.5313,0 c -3.2285,0 -5.6563,3.09375 -5.6563,6.65625 l 0,9.40623 -7.1874,0 0,-24.34373 c 0,-1.98251 1.6205,-3.625 3.5937,-3.625 z m 9.25,13.90625 12.5313,0 c 1.924101,0 3.656201,1.99615 3.656201,4.65625 l 0,9.40623 -19.843801,0 0,-9.40623 c 0,-2.65796 1.7448,-4.65625 3.6563,-4.65625 z m 30.218701,0 12.5,0 c 1.9115,0 3.6876,1.99829 3.6876,4.65625 l 0,9.40623 -19.875,0 0,-9.40623 c 0,-2.65796 1.776,-4.65625 3.6874,-4.65625 z M 9.9999998,1009.3309 90,1009.3309 c 0.5527,0 1,0.4401 1,1 l 0,15.0313 -82.0000002,0 0,-15.0313 c 0,-0.5599 0.4473,-1 1,-1 z" fill-opacity="1" fill-rule="evenodd" stroke="none" marker="none" visibility="visible" display="inline" overflow="visible"/></g></svg>