<svg xmlns="http://www.w3.org/2000/svg" data-name="Layer 1" viewBox="0 0 100 125" x="0px" y="0px"><title>Artboard 28</title><path fill="rgba(255, 255, 255, 0.8)" d="M83.14,18.77C81,18.47,79,18.21,76.85,18V10a5,5,0,0,0-4.54-5A237,237,0,0,0,27.68,5a5,5,0,0,0-4.54,5v8c-2.1.24-4.19.5-6.28.79a5,5,0,0,0-4.32,4.94V46.94q5.57-.95,11.2-1.61V36.11a3.18,3.18,0,0,1,2-3,22.3,22.3,0,0,1,15.84,0,3.18,3.18,0,0,1,2,3v7.76c2.13-.06,4.26-.1,6.39-.1s4.26,0,6.39.1V36.11a3.18,3.18,0,0,1,2-3,22.3,22.3,0,0,1,15.84,0,3.18,3.18,0,0,1,2,3v9.22q5.62.66,11.2,1.61V23.71A5,5,0,0,0,83.14,18.77Z"/><path fill="rgba(255, 255, 255, 0.8)" d="M97,80.15V60.47a5,5,0,0,0-4-4.89A216.3,216.3,0,0,0,7,55.58a5,5,0,0,0-4,4.89V90.56A5.45,5.45,0,0,0,8.45,96h6.63a5.45,5.45,0,0,0,5.45-5.45V83.3a216.31,216.31,0,0,0,29.47,2,216.3,216.3,0,0,0,29.47-2v7.26A5.45,5.45,0,0,0,84.92,96h6.63A5.45,5.45,0,0,0,97,90.56Z"/></svg>