<svg xmlns="http://www.w3.org/2000/svg" xmlns:xlink="http://www.w3.org/1999/xlink" version="1.1" x="0px" y="0px" viewBox="0 0 100 125" enable-background="new 0 0 100 100" xml:space="preserve"><path d="M86.3,42.09l-9.13-9.13c-0.439-0.44-1.15-0.44-1.58,0c-0.43,0.43-0.43,1.14,0,1.57l9.12,9.12H66.92V13.26  c0-3.07-2.5-5.56-5.56-5.56h-43.2c-1.11,0-2.18,0.33-3.1,0.95c-0.01,0-0.01,0-0.01,0c-0.01,0.01-0.01,0.01-0.01,0.01  c-1.53,1.04-2.44,2.76-2.44,4.6V78.28c0,0.46,0.28,0.87,0.71,1.029L46.7,92.23c0.13,0.05,0.27,0.069,0.4,0.069  c0.23,0,0.45-0.06,0.64-0.189c0.3-0.21,0.48-0.551,0.48-0.92V79.39h13.14c3.06,0,5.56-2.5,5.56-5.56V45.88h17.79L75.59,55  c-0.43,0.44-0.43,1.14,0,1.58c0.22,0.22,0.5,0.32,0.79,0.32c0.28,0,0.57-0.101,0.78-0.32l9.14-9.13c0.71-0.72,1.101-1.67,1.101-2.68  C87.4,43.76,87.01,42.81,86.3,42.09z M61.36,77.16H48.22V21.72c0-0.46-0.28-0.87-0.71-1.04L19.67,9.92h41.68  c1.851,0,3.341,1.5,3.341,3.34v30.39h-7.12c-0.62,0-1.11,0.5-1.11,1.12c0,0.61,0.5,1.11,1.11,1.11h7.12v27.94h0.01  C64.7,75.66,63.2,77.16,61.36,77.16z"/></svg>