<svg xmlns:x="http://ns.adobe.com/Extensibility/1.0/" xmlns:i="http://ns.adobe.com/AdobeIllustrator/10.0/" xmlns:graph="http://ns.adobe.com/Graphs/1.0/" xmlns="http://www.w3.org/2000/svg" xmlns:xlink="http://www.w3.org/1999/xlink" version="1.1" x="0px" y="0px" viewBox="0 0 64 80" enable-background="new 0 0 64 64" xml:space="preserve"><metadata><sfw xmlns="http://ns.adobe.com/SaveForWeb/1.0/"><slices/><sliceSourceBounds y="-8160" x="-8165" width="16389" height="16384" bottomLeftOrigin="true"/></sfw></metadata><g><path fill="#0066cc" d="M50.5,32c0-0.276-0.224-0.5-0.5-0.5h-7.5V18c0-5.79-4.71-10.5-10.5-10.5c-5.79,0-10.5,4.71-10.5,10.5v13.5H14   c-0.276,0-0.5,0.224-0.5,0.5c0,10.032,8.031,18.206,18,18.475V55.5H24c-0.276,0-0.5,0.224-0.5,0.5s0.224,0.5,0.5,0.5h16   c0.276,0,0.5-0.224,0.5-0.5s-0.224-0.5-0.5-0.5h-7.5v-5.025C42.469,50.206,50.5,42.032,50.5,32z M22.5,18   c0-5.238,4.262-9.5,9.5-9.5s9.5,4.262,9.5,9.5v14c0,5.238-4.262,9.5-9.5,9.5s-9.5-4.262-9.5-9.5V18z M14.507,32.5h7.019   c0.264,5.557,4.854,10,10.475,10c5.621,0,10.211-4.443,10.475-10h7.019c-0.266,9.419-8.011,17-17.493,17S14.772,41.919,14.507,32.5   z"/></g></svg>