<svg xmlns="http://www.w3.org/2000/svg" data-name="Layer 1" viewBox="0 0 100 125" x="0px" y="0px"><title>Artboard 28</title><path fill="rgba(255, 255, 255, 0.8)" d="M96.61,47.69V85.16a7.77,7.77,0,0,1-7.77,7.77H56.15a4.51,4.51,0,0,1-8.08,2.4,4.52,4.52,0,0,1-8.53,0,4.52,4.52,0,0,1-8-1.71A31.54,31.54,0,0,1,13.94,99H5.22a1.83,1.83,0,0,1-1.83-1.83V69.71A2.1,2.1,0,0,1,4.24,68L17.3,58.34a11.27,11.27,0,0,1,7.87-2.16V72.52a4.33,4.33,0,0,0,.9,2.74,4.15,4.15,0,0,0,4.76,1.27l.05,0h0l17.7-6.93a5.08,5.08,0,0,1,6.58,2.87A5.19,5.19,0,0,1,53,78.69l-9.27,5.89H88.26V63.14H37.67v6.27l-8.35,3.27v-13a4.84,4.84,0,0,1,4.84-4.84h54.1V48.27H54.05A4.09,4.09,0,0,1,50,44.18c0-.07,0-.13,0-.2a4,4,0,0,1,3.92-4.07H88.84A7.77,7.77,0,0,1,96.61,47.69ZM35.32,13.85a18.71,18.71,0,0,1,5.4.77,3.67,3.67,0,0,0,1.06.15,3.82,3.82,0,0,0,1-7.51,26.66,26.66,0,0,0-5.46-.81V4.27a3.27,3.27,0,0,0-6.54,0V6.92C24.3,8.25,20.3,12.53,20.3,18.12c0,6.86,6,9.77,11.29,11.54,4.6,1.55,6.39,3,6.39,5.15s-2.18,3.59-5.69,3.59a20.46,20.46,0,0,1-6.61-1.14,3.92,3.92,0,0,0-1.27-.21,3.75,3.75,0,0,0-3.65,2.8l-.08.29a3.84,3.84,0,0,0,2.53,4.58,28.88,28.88,0,0,0,7.22,1.31v2.61a3.27,3.27,0,1,0,6.54,0V45.59c6.69-1.24,11-5.79,11-11.64s-3-9.16-10.48-11.79c-5.5-2.07-7.26-3.31-7.26-5.09C30.24,15,32.09,13.85,35.32,13.85Z"/></svg>