<svg xmlns="http://www.w3.org/2000/svg" xmlns:xlink="http://www.w3.org/1999/xlink" version="1.1" x="0px" y="0px" viewBox="0 0 100 125" style="enable-background:new 0 0 100 100;" xml:space="preserve"><path fill="white" d="M71,41.5V29.7C71,18,61.6,8.5,50,8.5S29,18,29,29.7v11.8c-3.5,1.2-6,4.6-6,8.5v32c0,5,4,9,9,9h36c5,0,9-4,9-9V50  C77,46.1,74.5,42.8,71,41.5z M50,14.5c8.3,0,15,6.8,15,15.2V41H35V29.7C35,21.3,41.7,14.5,50,14.5z M52,75c0,1.1-0.9,2-2,2  s-2-0.9-2-2v-6c0-1.1,0.9-2,2-2s2,0.9,2,2V75z"/></svg>