<svg xmlns="http://www.w3.org/2000/svg" xmlns:xlink="http://www.w3.org/1999/xlink" version="1.1" x="0px" y="0px" viewBox="0 0 80 100" enable-background="new 0 0 80 80" xml:space="preserve"><path fill="white" fill-rule="evenodd" clip-rule="evenodd" d="M63.313,31.112c-1.149-2.719-2.796-5.161-4.893-7.257  c-2.097-2.096-4.538-3.743-7.257-4.893c-2.786-1.177-5.743-1.781-8.789-1.794c-0.033,0-0.066,0-0.1,0s-0.066,0-0.1,0  c-3.046,0.013-6.003,0.617-8.789,1.794c-2.719,1.15-5.161,2.797-7.258,4.893c-2.096,2.097-3.743,4.539-4.892,7.257  c-1.191,2.816-1.795,5.806-1.795,8.888c0,3.083,0.604,6.074,1.795,8.888c1.149,2.719,2.796,5.16,4.892,7.258  c2.097,2.096,4.539,3.742,7.258,4.893c2.786,1.178,5.743,1.781,8.789,1.793c0.033,0,0.066,0.002,0.1,0.002s0.066-0.002,0.1-0.002  c3.046-0.012,6.003-0.615,8.789-1.793c2.719-1.15,5.16-2.797,7.257-4.893c2.097-2.098,3.743-4.539,4.893-7.258  c1.191-2.814,1.795-5.805,1.795-8.888C65.108,36.918,64.505,33.928,63.313,31.112L63.313,31.112z M27.426,25.151  c1.928-1.929,4.175-3.443,6.675-4.5c0.858-0.363,1.733-0.667,2.625-0.91c-1.112,1.114-2.13,2.574-3.019,4.352  c-0.57,1.139-1.071,2.378-1.5,3.695c-1.977-0.527-3.788-1.211-5.359-2.035C27.036,25.549,27.229,25.348,27.426,25.151L27.426,25.151  z M22.925,31.826c0.705-1.667,1.613-3.221,2.712-4.643c1.76,0.966,3.81,1.76,6.054,2.361c-0.774,2.927-1.213,6.169-1.281,9.539  h-9.115C21.402,36.572,21.949,34.135,22.925,31.826L22.925,31.826z M25.637,52.818c-1.099-1.422-2.007-2.977-2.712-4.645  c-0.977-2.307-1.523-4.744-1.63-7.256h9.115c0.067,3.369,0.507,6.611,1.281,9.537C29.447,51.057,27.398,51.852,25.637,52.818  L25.637,52.818z M34.101,59.352c-2.5-1.059-4.747-2.572-6.675-4.502c-0.197-0.197-0.39-0.396-0.578-0.602  c1.572-0.826,3.382-1.51,5.358-2.035c0.429,1.316,0.931,2.555,1.5,3.695c0.889,1.777,1.907,3.238,3.019,4.352  C35.834,60.018,34.959,59.713,34.101,59.352L34.101,59.352z M41.358,60.91c-0.94-0.186-1.864-0.66-2.757-1.416  c-1.209-1.021-2.305-2.506-3.255-4.406c-0.51-1.02-0.961-2.125-1.351-3.301c2.306-0.48,4.794-0.762,7.362-0.814V60.91L41.358,60.91z   M41.358,49.139c-2.746,0.057-5.412,0.361-7.887,0.889c-0.739-2.781-1.161-5.881-1.228-9.109h9.115V49.139L41.358,49.139z   M41.358,39.083h-9.115c0.066-3.231,0.489-6.329,1.228-9.111c2.477,0.529,5.144,0.835,7.887,0.891V39.083L41.358,39.083z   M41.358,29.029c-2.565-0.054-5.054-0.334-7.362-0.817c0.389-1.176,0.841-2.28,1.35-3.299c0.95-1.901,2.046-3.383,3.255-4.407  c0.893-0.755,1.816-1.229,2.757-1.415V29.029L41.358,29.029z M50.449,20.651c2.501,1.058,4.747,2.571,6.676,4.5  c0.196,0.197,0.389,0.397,0.577,0.6c-1.553,0.812-3.379,1.506-5.36,2.035c-0.429-1.316-0.93-2.554-1.499-3.693  c-0.89-1.778-1.907-3.239-3.019-4.353C48.716,19.984,49.591,20.288,50.449,20.651L50.449,20.651z M43.192,19.091  c0.939,0.187,1.863,0.66,2.755,1.415c1.21,1.023,2.306,2.506,3.257,4.407c0.508,1.018,0.959,2.123,1.349,3.297  c-2.323,0.486-4.827,0.765-7.36,0.819V19.091L43.192,19.091z M43.192,30.863c2.742-0.054,5.386-0.352,7.887-0.889  c0.738,2.782,1.161,5.879,1.229,9.109h-9.115V30.863L43.192,30.863L43.192,30.863z M43.192,40.918h9.115  c-0.067,3.23-0.49,6.328-1.229,9.111c-2.477-0.529-5.144-0.834-7.886-0.891V40.918L43.192,40.918L43.192,40.918z M45.947,59.494  c-0.892,0.756-1.815,1.23-2.755,1.416v-9.938c2.565,0.053,5.054,0.334,7.361,0.816c-0.39,1.176-0.842,2.279-1.35,3.299  C48.253,56.988,47.157,58.473,45.947,59.494L45.947,59.494z M57.125,54.85c-1.929,1.93-4.175,3.443-6.676,4.502  c-0.858,0.361-1.733,0.666-2.625,0.908c1.111-1.113,2.129-2.574,3.019-4.352c0.569-1.139,1.07-2.377,1.5-3.695  c1.977,0.527,3.789,1.211,5.36,2.035C57.515,54.453,57.321,54.652,57.125,54.85L57.125,54.85z M61.626,48.174  c-0.706,1.668-1.613,3.223-2.713,4.645c-1.761-0.967-3.81-1.76-6.054-2.361c0.773-2.928,1.214-6.17,1.281-9.539h9.114  C63.149,43.43,62.603,45.867,61.626,48.174L61.626,48.174z M54.141,39.083c-0.067-3.369-0.508-6.611-1.281-9.538  c2.277-0.61,4.308-1.403,6.054-2.362c1.1,1.422,2.007,2.976,2.713,4.643c0.977,2.309,1.523,4.746,1.629,7.257H54.141L54.141,39.083z  "/></svg>