<svg xmlns="http://www.w3.org/2000/svg" viewBox="0 0 88.88 93.4" x="0px" y="0px"><title>05</title><path fill="#0066cc" d="M89.8,17.07l-26.64,0h0a7.27,7.27,0,0,0-2.92.61,10.89,10.89,0,0,0-1.06-.73c-3.53-2.11-8.38-2.36-14.43-.73-7.11,1.91-9.88,6.3-11,9.65a12.87,12.87,0,0,0-12.54,20.2l-13,35.12,4,8.69,6.36-2.92.49-1.32,1,.36,2.39-6.45-.58-1.26,1.64-4.44,3.17-1.46,1.38-3.72-1.65-3.59.49-1.33,3.4-1.56,1.61-4.35-.8-1.75L31.89,54l-.76-1.65.33-.89a12.87,12.87,0,0,0,4.72-24.94c-.37-.14-.74-.25-1.11-.35,1.44-4.35,4.8-7.27,10-8.67,6-1.62,10.7-1.29,13.91.9a7.46,7.46,0,0,0-1,.84,7.28,7.28,0,0,0-2.16,5.18l0,51.89a7.35,7.35,0,0,0,7.33,7.34l26.64,0h0a7.34,7.34,0,0,0,7.33-7.33l0-51.89A7.34,7.34,0,0,0,89.8,17.07ZM33,31.21a11.62,11.62,0,0,0,.13,1.52l1.29-.22a10.87,10.87,0,0,1-.11-1.4,1.61,1.61,0,0,1-.53,3.12h0a1.61,1.61,0,0,1-.77-3ZM41.63,34A10.85,10.85,0,0,1,42,42.35a11,11,0,0,1-11.08,7.09l-.74-.06L29,52.4,29.78,54,29,56.16l.8,1.75-1,2.83-3.4,1.56L24.3,65.15l1.65,3.59-.81,2.2L22,72.4l-2.2,6,.58,1.26-1.43,3.86-1-.36-.88,2.39L13.2,87.27l-2.84-6.18L23.46,45.72l-.34-.43A10.92,10.92,0,0,1,33.31,27.76,16.44,16.44,0,0,0,33.06,30a2.71,2.71,0,0,0,.76,5.31h0A2.71,2.71,0,0,0,34.37,30,15.19,15.19,0,0,1,34.59,28c.31.08.61.18.91.29A10.85,10.85,0,0,1,41.63,34ZM95.13,76.3a5.38,5.38,0,0,1-5.38,5.37h0l-26.64,0a5.4,5.4,0,0,1-5.37-5.38l0-51.89a5.34,5.34,0,0,1,1.58-3.8,5.44,5.44,0,0,1,1.18-.89,10.07,10.07,0,0,1,1.12,1.43l-.16.14a2.71,2.71,0,0,0,1.91,4.63h0a2.71,2.71,0,0,0,0-5.42h0a2.73,2.73,0,0,0-.58.07,11.54,11.54,0,0,0-1-1.36A5.36,5.36,0,0,1,63.15,19h0L89.8,19a5.4,5.4,0,0,1,5.37,5.38ZM62.22,22.1a12.79,12.79,0,0,1,.58,1.31L64,22.95a14.08,14.08,0,0,0-.61-1.38A1.61,1.61,0,0,1,65,23.18h0a1.61,1.61,0,0,1-1.61,1.61h0a1.61,1.61,0,0,1-1.19-2.68Z" transform="translate(-8.25 -15.14)"/></svg>