<svg xmlns:dc="http://purl.org/dc/elements/1.1/" xmlns:cc="http://creativecommons.org/ns#" xmlns:rdf="http://www.w3.org/1999/02/22-rdf-syntax-ns#" xmlns:svg="http://www.w3.org/2000/svg" xmlns="http://www.w3.org/2000/svg" xmlns:sodipodi="http://sodipodi.sourceforge.net/DTD/sodipodi-0.dtd" xmlns:inkscape="http://www.inkscape.org/namespaces/inkscape" version="1.1" x="0px" y="0px" viewBox="0 0 100 125"><g transform="translate(0,-952.36218)"><path fill="#0066cc" style="text-indent:0;text-transform:none;direction:ltr;block-progression:tb;baseline-shift:baseline;color:#000000;enable-background:accumulate;" d="m 7.8126291,981.36285 c -0.45839,0.087 -0.82071,0.5334 -0.81249,1 l 0,39.99935 c 5e-5,0.5236 0.47641,0.9999 0.99999,1 l 7.8748999,0 c 0.50339,9e-4 0.96848,-0.4351 0.99999,-0.9375 l 0.0625,-1.0625 66.09296,0 0.0625,1.0312 c 0.0161,0.5131 0.48665,0.969 0.99999,0.9688 l 7.90616,0 c 0.52357,-10e-5 0.99993,-0.4764 0.99998,-1 0.002,-10.6697 0,-21.322 0,-31.99971 -5e-5,-0.5235 -0.47641,-0.9998 -0.99998,-0.9999 l -48.99942,-0.013 c 0,0 -2.00003,-0.013 -1.99998,1.9999 l 5e-5,20.01231 -23.99971,0 0.0312,-28.99955 c -5e-5,-0.5236 -0.47641,-0.9999 -0.99999,-1 -2.85784,-2e-4 -5.763,-10e-5 -8.2186499,6e-4 z m 1.18749,2 6.0311699,0 -0.0312,28.99955 c 5e-5,0.5236 0.47642,0.9999 0.99999,1 l 74.99911,0 0,7.9998 -5.93743,0 -0.0625,-1.0312 c -0.0161,-0.513 -0.48664,-0.9689 -0.99999,-0.9687 l -67.99919,0 c -0.50338,-9e-4 -0.96848,0.4351 -0.99999,0.9375 l -0.0625,1.0624 -5.9374299,0 z m 33.9995899,7.98704 47.99943,0.013 0,19.99971 -47.99943,0 c 0,-6.6709 0,-13.34181 0,-20.01271 z m -12.99984,2.0128 c -3.85411,0 -6.99992,3.1458 -6.99992,6.99991 0,3.854 3.14581,6.9999 6.99992,6.9999 3.8541,0 6.99991,-3.1459 6.99991,-6.9999 0,-3.85411 -3.14581,-6.99991 -6.99991,-6.99991 z m 0,2 c 2.77323,0 4.99994,2.2266 4.99994,4.99991 0,2.7732 -2.22671,4.9999 -4.99994,4.9999 -2.77324,0 -4.99994,-2.2267 -4.99994,-4.9999 0,-2.77331 2.2267,-4.99991 4.99994,-4.99991 z" fill-opacity="1" stroke="none" marker="none" visibility="visible" display="inline" overflow="visible"/></g></svg>