<svg xmlns="http://www.w3.org/2000/svg" xmlns:xlink="http://www.w3.org/1999/xlink" version="1.1" x="0px" y="0px" viewBox="0 0 100 125" style="enable-background:new 0 0 100 100;" xml:space="preserve"><g><path fill="#0066cc" d="M59.1,42c-7.3,0-13.3-6-13.3-13.3c0-7.3,6-13.3,13.3-13.3s13.3,6,13.3,13.3C72.5,36.1,66.5,42,59.1,42z M59.1,16.4   c-6.8,0-12.3,5.5-12.3,12.3c0,6.8,5.5,12.3,12.3,12.3s12.3-5.5,12.3-12.3C71.5,21.9,65.9,16.4,59.1,16.4z"/></g><g><path fill="#0066cc" d="M76.7,88.1h-1V63.7c0-9.2-7.4-16.6-16.6-16.6c-9.2,0-16.6,7.4-16.6,16.6v24.4h-1V63.7c0-9.7,7.9-17.6,17.6-17.6   S76.7,54,76.7,63.7V88.1z"/></g><g><path fill="#0066cc" d="M41.1,36.6c-7.3,0-13.3-6-13.3-13.3S33.8,10,41.1,10c5.1,0,9.7,2.9,12,7.5l-0.9,0.4c-2.1-4.3-6.3-6.9-11.1-6.9   c-6.8,0-12.3,5.5-12.3,12.3s5.5,12.3,12.3,12.3c2.2,0,4.4-0.6,6.3-1.7l0.5,0.9C45.8,36,43.5,36.6,41.1,36.6z"/></g><g><path fill="#0066cc" d="M24.5,82.7h-1V58.3c0-9.7,7.9-17.6,17.6-17.6c5.2,0,10.1,2.3,13.5,6.3l-0.8,0.6c-3.2-3.8-7.8-6-12.7-6   c-9.2,0-16.6,7.4-16.6,16.6V82.7z"/></g></svg>