<svg xmlns:x="http://ns.adobe.com/Extensibility/1.0/" xmlns:i="http://ns.adobe.com/AdobeIllustrator/10.0/" xmlns:graph="http://ns.adobe.com/Graphs/1.0/" xmlns="http://www.w3.org/2000/svg" xmlns:xlink="http://www.w3.org/1999/xlink" version="1.1" x="0px" y="0px" viewBox="0 0 64 80" enable-background="new 0 0 64 64" xml:space="preserve"><metadata><sfw xmlns="http://ns.adobe.com/SaveForWeb/1.0/"><slices/><sliceSourceBounds y="-8160" x="-8165" width="16389" height="16384" bottomLeftOrigin="true"/></sfw></metadata><g><g><path fill="rgba(255, 255, 255, 0.4)" d="M22.8,38.371c-0.195-0.195-0.512-0.195-0.707,0L10.779,49.686c-0.195,0.195-0.195,0.512,0,0.707    c0.098,0.098,0.226,0.146,0.354,0.146s0.256-0.049,0.354-0.146L22.8,39.078C22.995,38.883,22.995,38.566,22.8,38.371z"/><path fill="#dedede" d="M24.921,41.199L13.607,52.514c-0.195,0.195-0.195,0.512,0,0.707c0.098,0.098,0.226,0.146,0.354,0.146    s0.256-0.049,0.354-0.146l11.313-11.314c0.195-0.195,0.195-0.512,0-0.707S25.116,41.004,24.921,41.199z"/><path fill="#dedede" d="M42.82,36.457l-5.871-5.871l12.64-12.639h2.621c0.133,0,0.26-0.053,0.354-0.146l4.243-4.243    c0.094-0.094,0.146-0.221,0.146-0.354s-0.053-0.26-0.146-0.354l-5.657-5.656c-0.195-0.195-0.512-0.195-0.707,0l-4.243,4.242    c-0.094,0.094-0.146,0.221-0.146,0.354v2.621L33.414,27.05c-1.158-1.158-4.908-4.908-5.871-5.871    c1.358-3.812,0.408-8.077-2.464-10.948c-2.673-2.674-6.604-3.703-10.255-2.682c-0.171,0.048-0.304,0.183-0.349,0.354    c-0.045,0.172,0.004,0.355,0.13,0.48l3.957,3.958l-1.314,4.905l-4.907,1.315l-3.956-3.956c-0.126-0.126-0.31-0.175-0.48-0.13    c-0.172,0.045-0.307,0.178-0.354,0.349c-1.019,3.652,0.008,7.581,2.682,10.255c2.872,2.871,7.136,3.819,10.948,2.463l5.871,5.871    l-1.939,1.939c-0.809-0.452-1.712-0.715-2.664-0.715c-1.469,0-2.85,0.572-3.889,1.611l-9.9,9.898    c-2.144,2.145-2.144,5.635,0,7.779l1.415,1.414c1.039,1.039,2.419,1.611,3.889,1.611s2.85-0.572,3.889-1.611l9.899-9.9    c1.039-1.038,1.611-2.419,1.611-3.888c0-0.952-0.263-1.855-0.715-2.664l1.939-1.939l5.871,5.871    c-1.357,3.812-0.407,8.077,2.464,10.948c1.991,1.991,4.678,3.069,7.429,3.069c0.943,0,1.895-0.127,2.828-0.388    c0.171-0.048,0.304-0.183,0.349-0.354s-0.004-0.354-0.13-0.48l-3.957-3.957l1.314-4.906l4.906-1.314l3.957,3.957    c0.125,0.125,0.307,0.178,0.48,0.13c0.172-0.045,0.307-0.178,0.354-0.349c1.019-3.652-0.009-7.582-2.683-10.256    C50.896,36.047,46.633,35.099,42.82,36.457z M21.659,26.608c-0.14-0.141-0.35-0.184-0.536-0.112    c-3.518,1.379-7.516,0.545-10.185-2.124c-2.21-2.211-3.177-5.372-2.623-8.422l3.522,3.522c0.126,0.126,0.311,0.176,0.483,0.129    l5.465-1.465c0.172-0.046,0.307-0.181,0.354-0.354l1.464-5.463c0.046-0.172-0.003-0.356-0.129-0.483L15.95,8.314    c3.052-0.558,6.212,0.412,8.422,2.623c2.669,2.668,3.502,6.666,2.128,10.176c-0.125,0.303-0.112,0.325,6.207,6.644l-4.95,4.95    L21.659,26.608z M46.906,14.971c0.094-0.094,0.146-0.221,0.146-0.354v-2.621l3.743-3.742l4.95,4.949l-3.743,3.743h-2.621    c-0.133,0-0.26,0.053-0.354,0.146L28.104,38.018l-2.122-2.121L46.906,14.971z M27.042,44.734l-9.899,9.9    c-0.85,0.851-1.979,1.318-3.182,1.318s-2.332-0.468-3.182-1.318l-1.415-1.414c-1.754-1.755-1.754-4.61,0-6.365l9.9-9.898    c0.85-0.851,1.979-1.318,3.182-1.318s2.332,0.468,3.182,1.318l1.414,1.414c0.85,0.851,1.318,1.98,1.318,3.183    C28.36,42.755,27.892,43.885,27.042,44.734z M55.686,48.05l-3.523-3.522c-0.126-0.126-0.31-0.173-0.483-0.13l-5.464,1.464    c-0.172,0.047-0.307,0.182-0.354,0.354l-1.464,5.464c-0.046,0.173,0.004,0.357,0.13,0.483l3.523,3.523    c-3.053,0.552-6.212-0.412-8.424-2.623c-2.668-2.668-3.502-6.666-2.124-10.185c0.072-0.186,0.028-0.396-0.112-0.536l-6.099-6.099    l4.95-4.95l6.099,6.099c0.141,0.141,0.352,0.184,0.536,0.112c3.521-1.378,7.518-0.545,10.185,2.124    C55.272,41.839,56.239,44.999,55.686,48.05z"/></g></g></svg>