<svg xmlns="http://www.w3.org/2000/svg" xmlns:xlink="http://www.w3.org/1999/xlink" version="1.1" x="0px" y="0px" viewBox="0 0 25 31.25" enable-background="new 0 0 25 25" xml:space="preserve"><g><g><path fill="rgba(255, 255, 255, 0.8)" d="M22,4h-9V3c0-0.276-0.224-0.5-0.5-0.5S12,2.724,12,3v1H3C2.724,4,2.5,4.224,2.5,4.5S2.724,5,3,5h19    c0.276,0,0.5-0.224,0.5-0.5S22.276,4,22,4z"/><path fill="rgba(255, 255, 255, 0.8)" d="M21,5.5H4C3.724,5.5,3.5,5.724,3.5,6v11c0,0.276,0.224,0.5,0.5,0.5h8v3.109l-3.621,0.905    c-0.268,0.067-0.431,0.339-0.364,0.606c0.067,0.268,0.337,0.43,0.606,0.364l3.879-0.97l3.879,0.97    c0.041,0.01,0.082,0.015,0.122,0.015c0.224,0,0.428-0.151,0.484-0.379c0.067-0.268-0.096-0.539-0.364-0.606L13,20.609V17.5h8    c0.276,0,0.5-0.224,0.5-0.5V6C21.5,5.724,21.276,5.5,21,5.5z"/></g></g></svg>