<svg xmlns="http://www.w3.org/2000/svg" xmlns:xlink="http://www.w3.org/1999/xlink" version="1.1" x="0px" y="0px" viewBox="0 0 100 125" enable-background="new 0 0 100 100" xml:space="preserve"><path fill="rgba(255, 255, 255, 0.4)" fill-rule="evenodd" clip-rule="evenodd" d="M87.405,63.668c-4.349-4.353-10.961-5.676-16.633-3.382l-4.027-4.03l-9.67-9.647  c5.027-4.971,10.992-10.941,19.397-19.351c0.03,0,0.03,0,0.06,0l7.142-4.176c0.118-0.089,0.235-0.177,0.323-0.294l4.878-7.059  c0.266-0.382,0.236-0.913-0.117-1.235l-3.146-3.148c-0.322-0.323-0.851-0.382-1.234-0.117l-7.053,4.883  c-0.117,0.087-0.206,0.206-0.264,0.323l-4.174,7.147c-0.03,0.029-0.03,0.059-0.03,0.059c-8.699,8.706-14.549,14.529-19.396,19.324  l-9.67-9.648l-4.025-4.057c2.293-5.678,0.97-12.295-3.351-16.648c-3.939-3.91-9.697-5.411-15.046-3.91l-1.501,0.41l10.435,10.471  l-8.7,8.705L11.171,17.815l-0.442,1.53c-1.499,5.352,0,11.116,3.939,15.028c4.35,4.353,10.931,5.677,16.635,3.382l4.027,4.029  l9.61,9.648c-2.704,2.705-5.497,5.44-8.759,8.735l-1.999-1.972c-0.441-0.441-0.996-0.675-1.613-0.675  c-0.619,0-1.179,0.234-1.618,0.675L8.787,80.373c-0.438,0.442-0.673,1-0.673,1.617c0,0.617,0.235,1.177,0.673,1.617l7.587,7.588  c0.439,0.441,0.996,0.677,1.613,0.677c0.617,0,1.179-0.236,1.617-0.677L41.761,69.02c0.443-0.443,0.678-1,0.678-1.617  c0-0.618-0.235-1.177-0.678-1.618l-1.966-1.97c3.145-3.177,5.936-5.941,8.789-8.764l9.668,9.675l4.026,4.06  c-2.293,5.677-0.97,12.294,3.379,16.646c3.91,3.912,9.669,5.412,15.019,3.912l1.528-0.412L71.741,78.461l8.7-8.706l10.462,10.471  l0.412-1.528C92.813,73.344,91.315,67.578,87.405,63.668z"/></svg>