<svg xmlns="http://www.w3.org/2000/svg" data-name="Layer 2" viewBox="0 0 100 125" x="0px" y="0px"><title>Miscellaneous</title><path fill="#0066cc" d="M51,84v-9a1,1,0,0,0-2,0v9A1,1,0,1,0,51,84Z"/><path d="M62.81,92.39L50.57,86.61a1,1,0,0,0-.5-0.16H50a1,1,0,0,0-.48.15L37.23,92.39a1,1,0,1,0,.85,1.81L50,88.56,62,94.19A1,1,0,0,0,62.81,92.39Z"/><path fill="#0066cc" d="M95,9H51V6.71a1,1,0,0,0-2,0V9H5a1,1,0,0,0-1,1v4a1,1,0,0,0,1,1H83a1,1,0,0,0,0-2H6V11H94v2H87.88a1,1,0,0,0,0,2h1.31V63.78a5,5,0,0,1-5,5H15.82a5,5,0,0,1-5-5V19.42a1,1,0,0,0-2,0V63.78a7,7,0,0,0,7,7H84.18a7,7,0,0,0,7-7V15H95a1,1,0,0,0,1-1V10A1,1,0,0,0,95,9Z"/><path fill="#0066cc" d="M47.62,33.85a1,1,0,0,0-1.41,0L19.43,60.63A1,1,0,1,0,20.84,62L46.91,36l9.58,9.58a1,1,0,0,0,1.41,0L78.82,24.63v3.73a1,1,0,0,0,2,0v-6a1,1,0,0,0-1-1.22H73.68a1,1,0,0,0,0,2h3.77L57.2,43.43Z"/></svg>